<svg xmlns="http://www.w3.org/2000/svg" viewBox="0 0 211 145.92"><defs><style>.cls-1{fill:#d81c1d;}.cls-2,.cls-5{fill:#fff;}.cls-3{fill:#503828;}.cls-4{fill:#e2b78d;}.cls-5{stroke:#1d1d1b;stroke-miterlimit:10;stroke-width:3px;}.cls-6{fill:#ef7c54;}.cls-7{fill:#1d1d1b;}</style></defs><g id="Layer_2" data-name="Layer 2"><g id="Layer_1-2" data-name="Layer 1"><path class="cls-1" d="M112.65,118.23,113,118H97.7l.37.25-3.38,12.2,10.67,15.47L116,130.43Z"/><path class="cls-1" d="M114.9,116.4A8,8,0,0,1,111,123h0l-.29.18a12.23,12.23,0,0,1-12.22,0c-.11-.07-.22-.13-.31-.2a8,8,0,0,1-3.9-6.6c0-4.66,4.61-8.43,10.31-8.43S114.9,111.74,114.9,116.4Z"/><polyline class="cls-2" points="113.92 111.44 121.61 122.85 145.71 103.81"/><polyline class="cls-2" points="96.45 111.44 88.76 122.85 64.65 103.81"/><ellipse class="cls-3" cx="184" cy="62.5" rx="27" ry="29.5"/><ellipse class="cls-4" cx="180" cy="65.5" rx="19" ry="20.5"/><ellipse class="cls-3" cx="27" cy="62.5" rx="27" ry="29.5"/><ellipse class="cls-4" cx="31" cy="65.5" rx="19" ry="20.5"/><ellipse class="cls-3" cx="105.5" cy="57" rx="78.5" ry="57"/><path class="cls-4" d="M165.77,63.26c-.5,14.91-11,24.59-15.2,28.52-15.81,14.63-36,14.75-45.31,14.81-9.75.06-31.79.19-47.51-15.82-3.39-3.45-12.87-13.12-13-27.51-.14-14.7,9.52-29.69,22.39-33.79,7-2.22,14-.94,17.19-.35,11.61,2.12,13,7.43,21.13,7.16,7.9-.26,8.83-5.38,19.69-7.88,2.61-.6,10.41-2.39,18.06,0C156.42,32.5,166.28,48.16,165.77,63.26Z"/><path class="cls-5" d="M146.19,72a10.9,10.9,0,0,0-7.42-1L105,76.66,71.12,71.08A10.8,10.8,0,0,0,57.94,82.51c0,9.79,21,17.72,47,17.72s47-7.93,47-17.72A10.79,10.79,0,0,0,146.19,72Z"/><line class="cls-5" x1="69.5" y1="94" x2="69.5" y2="72"/><line class="cls-5" x1="140.5" y1="94" x2="140.5" y2="71"/><line class="cls-5" x1="87.5" y1="98" x2="87.5" y2="73"/><line class="cls-5" x1="123.5" y1="99" x2="123.5" y2="73"/><line class="cls-5" x1="105.5" y1="76" x2="105.5" y2="100"/><path class="cls-6" d="M107.68,70.82a4.14,4.14,0,0,1-5.46,0l-4-3.67-4-3.66c-1.21-1.11.3-2.49,2.73-2.49H113c2.43,0,3.94,1.38,2.73,2.49l-4,3.66Z"/><path class="cls-2" d="M151.93,60l-11.19-3.82,7.08-9.46A11.82,11.82,0,0,1,151.93,60Z"/><path class="cls-7" d="M150.2,63.24a11.82,11.82,0,1,1-2.38-16.55l-7.08,9.46L151.93,60A11.57,11.57,0,0,1,150.2,63.24Z"/><path class="cls-2" d="M80.55,60,69.36,56.15l7.08-9.46A11.82,11.82,0,0,1,80.55,60Z"/><path class="cls-7" d="M78.82,63.24a11.82,11.82,0,1,1-2.38-16.55l-7.08,9.46L80.55,60A11.57,11.57,0,0,1,78.82,63.24Z"/></g></g></svg>