<svg xmlns="http://www.w3.org/2000/svg" viewBox="0 0 217.74 217.74"><defs><style>.cls-1{fill:#ef7c54;}.cls-2{fill:#d81c1d;}.cls-3,.cls-6{fill:#fff;}.cls-4{fill:#503828;}.cls-5{fill:#e2b78d;}.cls-6{stroke:#1d1d1b;stroke-miterlimit:10;stroke-width:3px;}.cls-7{fill:#1d1d1b;}</style></defs><g id="Layer_2" data-name="Layer 2"><g id="Layer_1-2" data-name="Layer 1"><circle class="cls-1" cx="108.87" cy="108.87" r="108.87"/><path class="cls-2" d="M116.16,161.59l.35-.21h-15.3l.37.24L98.2,173.82l10.66,15.46,10.68-15.49Z"/><path class="cls-2" d="M118.41,159.77a8,8,0,0,1-3.89,6.6h0l-.3.17a11.73,11.73,0,0,1-6.11,1.65,11.94,11.94,0,0,1-6.11-1.63l-.31-.2a8,8,0,0,1-3.89-6.6c0-4.66,4.61-8.43,10.31-8.43S118.41,155.11,118.41,159.77Z"/><polyline class="cls-3" points="117.42 154.81 125.11 166.22 149.22 147.18"/><polyline class="cls-3" points="99.96 154.81 92.26 166.22 68.16 147.18"/><ellipse class="cls-4" cx="187.51" cy="105.87" rx="27" ry="29.5"/><ellipse class="cls-5" cx="183.51" cy="108.87" rx="19" ry="20.5"/><ellipse class="cls-4" cx="30.51" cy="105.87" rx="27" ry="29.5"/><ellipse class="cls-5" cx="34.51" cy="108.87" rx="19" ry="20.5"/><ellipse class="cls-4" cx="109.01" cy="100.37" rx="78.5" ry="57"/><path class="cls-5" d="M169.28,106.63c-.5,14.91-10.95,24.58-15.21,28.52-15.8,14.63-36,14.75-45.31,14.81-9.74,0-31.79.19-47.51-15.83-3.38-3.44-12.87-13.11-13-27.5-.14-14.71,9.52-29.69,22.39-33.79,7-2.22,14-.94,17.19-.36,11.6,2.13,13,7.44,21.13,7.17,7.9-.27,8.83-5.38,19.69-7.88,2.61-.6,10.4-2.4,18,0C159.93,75.86,169.79,91.53,169.28,106.63Z"/><path class="cls-6" d="M149.7,115.4a10.85,10.85,0,0,0-7.42-1L108.46,120l-33.83-5.58a10.8,10.8,0,0,0-13.18,11.43c0,9.79,21,17.72,47,17.72s47-7.93,47-17.72A10.79,10.79,0,0,0,149.7,115.4Z"/><line class="cls-6" x1="73.01" y1="137.37" x2="73.01" y2="115.37"/><line class="cls-6" x1="144.01" y1="137.37" x2="144.01" y2="114.37"/><line class="cls-6" x1="91.01" y1="141.37" x2="91.01" y2="116.37"/><line class="cls-6" x1="127.01" y1="142.37" x2="127.01" y2="116.37"/><line class="cls-6" x1="109.01" y1="119.37" x2="109.01" y2="143.37"/><path class="cls-1" d="M111.19,114.19a4.15,4.15,0,0,1-5.47,0l-4-3.67-4-3.67c-1.22-1.1.3-2.48,2.73-2.48h16.13c2.43,0,4,1.38,2.74,2.48l-4,3.67Z"/><path class="cls-3" d="M155.44,103.34l-11.2-3.82,7.09-9.46A11.84,11.84,0,0,1,155.44,103.34Z"/><path class="cls-7" d="M153.71,106.61a11.82,11.82,0,0,1-18.93-14.17,11.61,11.61,0,0,1,2.65-2.59,11.83,11.83,0,0,1,13.9.21l-7.09,9.46,11.2,3.82A12,12,0,0,1,153.71,106.61Z"/><path class="cls-3" d="M84.06,103.34l-11.2-3.82L80,90.06A11.84,11.84,0,0,1,84.06,103.34Z"/><path class="cls-7" d="M82.33,106.61A11.82,11.82,0,0,1,63.4,92.44a11.61,11.61,0,0,1,2.65-2.59,11.83,11.83,0,0,1,13.9.21l-7.09,9.46,11.2,3.82A12,12,0,0,1,82.33,106.61Z"/></g></g></svg>