<svg xmlns="http://www.w3.org/2000/svg" viewBox="0 0 320.86 221.42"><defs><style>.cls-1{fill:#d81c1d;}.cls-2,.cls-5,.cls-7{fill:#fff;}.cls-2,.cls-5{stroke:#1d1d1b;stroke-miterlimit:10;}.cls-2{stroke-width:2px;}.cls-3{fill:#432918;}.cls-4{fill:#e2b78d;}.cls-5{stroke-width:3px;}.cls-6{fill:#ef7c54;}.cls-8{fill:#1d1d1b;}</style></defs><g id="Layer_2" data-name="Layer 2"><g id="Layer_1-2" data-name="Layer 1"><path class="cls-1" d="M170.18,179.28c.17-.1.36-.21.53-.33H147.43c.17.13.38.24.57.37l-5.15,18.58,16.23,23.53,16.25-23.57Z"/><path class="cls-1" d="M176.65,175.07c0,4.07-2.31,7.69-5.92,10h0c-.14.1-.3.19-.44.27a18.55,18.55,0,0,1-18.6,0c-.15-.1-.33-.19-.47-.3-3.61-2.35-5.93-6-5.93-10,0-7.09,7-12.82,15.69-12.82S176.65,168,176.65,175.07Z"/><polyline class="cls-2" points="173.27 168.69 184.97 186.06 221.65 157.07"/><polyline class="cls-2" points="146.07 168.69 134.37 186.06 97.69 157.07"/><ellipse class="cls-3" cx="279.72" cy="94.61" rx="41.14" ry="45.25"/><ellipse class="cls-4" cx="273.55" cy="98.72" rx="28.79" ry="30.85"/><ellipse class="cls-3" cx="41.14" cy="94.61" rx="41.14" ry="45.25"/><ellipse class="cls-4" cx="47.31" cy="98.72" rx="28.79" ry="30.85"/><ellipse class="cls-3" cx="160.43" cy="86.38" rx="119.29" ry="86.38"/><path class="cls-4" d="M252.64,95.37c-.76,22.69-16.66,37.41-23.13,43.4-24.06,22.26-54.73,22.45-68.95,22.53-14.83.09-48.38.29-72.29-24.07-5.16-5.25-19.59-20-19.8-41.86C68.26,73,83,50.2,102.55,44c10.62-3.38,21.26-1.44,26.15-.54,17.66,3.23,19.81,11.31,32.15,10.9,12-.4,13.44-8.19,30-12,4-.91,15.83-3.64,27.47,0C238.41,48.56,253.41,72.4,252.64,95.37Z"/><path class="cls-5" d="M223.18,109a16.47,16.47,0,0,0-11.28-1.45l-31.4,5.18a123.44,123.44,0,0,1-40.14,0L109,107.51A16.44,16.44,0,0,0,88.9,124.9c0,14.9,32,27,71.53,27S232,139.8,232,124.9A16.41,16.41,0,0,0,223.18,109Z"/><line class="cls-5" x1="105.79" y1="142.24" x2="105.79" y2="107.28"/><line class="cls-5" x1="214.8" y1="142.24" x2="214.8" y2="107.28"/><line class="cls-5" x1="132.53" y1="150.47" x2="132.53" y2="111.39"/><line class="cls-5" x1="188.06" y1="150.47" x2="188.06" y2="111.39"/><line class="cls-5" x1="161.33" y1="115.5" x2="161.33" y2="152.53"/><path class="cls-6" d="M164.25,107.5a6.33,6.33,0,0,1-8.32,0l-6.13-5.58-6.14-5.58c-1.85-1.68.46-3.79,4.16-3.79h24.55c3.69,0,6,2.11,4.15,3.79l-6.13,5.58Z"/><path class="cls-7" d="M231.58,90.37l-17-5.81,10.78-14.4A18,18,0,0,1,231.58,90.37Z"/><path class="cls-8" d="M229,95.34a18,18,0,1,1-28.8-21.56,17.65,17.65,0,0,1,4-3.93,18,18,0,0,1,21.15.31l-10.78,14.4,17,5.81A17.89,17.89,0,0,1,229,95.34Z"/><path class="cls-7" d="M123,90.37l-17-5.81,10.79-14.4A18,18,0,0,1,123,90.37Z"/><path class="cls-8" d="M120.33,95.34a18,18,0,1,1-3.61-25.18l-10.79,14.4,17,5.81A17.92,17.92,0,0,1,120.33,95.34Z"/></g></g></svg>