<svg xmlns="http://www.w3.org/2000/svg" viewBox="0 0 211.51 145.96"><defs><style>.cls-1{fill:#d81c1d;}.cls-2,.cls-5{fill:#fff;}.cls-3,.cls-9{fill:#503828;}.cls-4{fill:#e2b78d;}.cls-5,.cls-6{stroke:#1d1d1b;stroke-miterlimit:10;stroke-width:3px;}.cls-6{fill:none;}.cls-7{fill:#ef7c54;}.cls-8{fill:#1d1d1b;}.cls-9{opacity:0.39;}</style></defs><g id="Layer_2" data-name="Layer 2"><g id="Layer_1-2" data-name="Layer 1"><path class="cls-1" d="M116,130.43l-10.68,15.49-.76-1.1-9.9-14.36L97,122.11l1.07-3.86c-.12-.09-.26-.16-.37-.25H113l-.35.22.72,2.59Z"/><path class="cls-1" d="M114.9,116.41a7.26,7.26,0,0,1-1.53,4.41A9.3,9.3,0,0,1,111,123h0l-.3.18a12.22,12.22,0,0,1-12.21,0l-.32-.2a9.48,9.48,0,0,1-1.17-.89,7.62,7.62,0,0,1-2.72-5.7,7.06,7.06,0,0,1,.4-2.34c.07-.2.15-.4.23-.59a8.37,8.37,0,0,1,1.38-2.08,11.2,11.2,0,0,1,8.3-3.42c4.51,0,8.34,2.36,9.74,5.66A7,7,0,0,1,114.9,116.41Z"/><polygon class="cls-2" points="145.71 103.81 140.27 108.11 121.6 122.86 115.33 113.55 113.91 111.44 145.71 103.81"/><polygon class="cls-2" points="96.45 111.44 88.76 122.86 64.65 103.81 96.45 111.44"/><path class="cls-3" d="M211,62.5C211,78.79,198.91,92,184,92a25.09,25.09,0,0,1-13-3.62,28.18,28.18,0,0,1-9.62-9.73,31.76,31.76,0,0,1,.43-33,27.11,27.11,0,0,1,15.45-11.73A24.93,24.93,0,0,1,184,33C198.91,33,211,46.21,211,62.5Z"/><ellipse class="cls-4" cx="180" cy="65.5" rx="19" ry="20.5"/><ellipse class="cls-3" cx="27" cy="62.5" rx="27" ry="29.5"/><ellipse class="cls-4" cx="31" cy="65.5" rx="19" ry="20.5"/><path class="cls-3" d="M184,57c0,10.15-3.65,19.68-10.06,27.93q-1.37,1.77-2.91,3.45c-7.63,8.4-18.25,15.24-30.76,19.73a100.27,100.27,0,0,1-24.94,5.44c-.33,0-.67.07-1,.09q-4.35.36-8.83.36h-.91c-3.22,0-6.4-.19-9.52-.49l-.16,0a99.87,99.87,0,0,1-25.36-5.8c-12-4.49-22.19-11.16-29.58-19.3q-1.55-1.68-2.91-3.45C30.65,76.68,27,67.15,27,57a42,42,0,0,1,1.7-11.84,45.82,45.82,0,0,1,5-11.24C45.78,14.13,72.93.26,104.59,0h.91c32,0,59.6,13.94,71.79,33.92a45.82,45.82,0,0,1,5,11.24A42,42,0,0,1,184,57Z"/><path class="cls-4" d="M165.77,63.26c-.5,14.91-11,24.59-15.2,28.52-15.81,14.63-36,14.75-45.31,14.81-9.75.06-31.79.19-47.51-15.82-3.39-3.45-12.87-13.11-13-27.51-.14-14.7,9.52-29.68,22.39-33.78,7-2.23,14-.95,17.19-.36,11.61,2.12,13,7.43,21.13,7.16,7.9-.26,8.83-5.38,19.69-7.88,2.61-.6,10.41-2.39,18.06,0C156.42,32.5,166.28,48.16,165.77,63.26Z"/><path class="cls-5" d="M146.19,72a10.79,10.79,0,0,0-7.42-1L105,76.66,71.12,71.09A10.8,10.8,0,0,0,57.94,82.51c0,9.79,21,17.72,47,17.72s47-7.93,47-17.72A10.77,10.77,0,0,0,146.19,72Z"/><line class="cls-6" x1="69.5" y1="94" x2="69.5" y2="72"/><line class="cls-6" x1="140.5" y1="94" x2="140.5" y2="71"/><line class="cls-6" x1="87.5" y1="98" x2="87.5" y2="73"/><line class="cls-6" x1="123.5" y1="99" x2="123.5" y2="73"/><line class="cls-6" x1="105.5" y1="76" x2="105.5" y2="100"/><path class="cls-7" d="M107.68,70.82a4.14,4.14,0,0,1-5.46,0l-4-3.66-4-3.67c-1.21-1.11.3-2.49,2.73-2.49H113c2.43,0,3.94,1.38,2.73,2.49l-4,3.67Z"/><path class="cls-2" d="M151.93,60l-11.19-3.81,7.08-9.47A11.82,11.82,0,0,1,151.93,60Z"/><path class="cls-8" d="M150.2,63.24a11.82,11.82,0,1,1-18.93-14.17,12,12,0,0,1,2.65-2.58,11.83,11.83,0,0,1,13.9.2l-7.08,9.47L151.93,60A11.57,11.57,0,0,1,150.2,63.24Z"/><path class="cls-2" d="M80.55,60,69.36,56.16l7.08-9.47A11.82,11.82,0,0,1,80.55,60Z"/><path class="cls-8" d="M78.82,63.24A11.82,11.82,0,1,1,59.89,49.07a12,12,0,0,1,2.66-2.58,11.82,11.82,0,0,1,13.89.2l-7.08,9.47L80.55,60A11.57,11.57,0,0,1,78.82,63.24Z"/><path class="cls-9" d="M211.51,62.54c0,16.29-12.09,29.5-27,29.5a25.09,25.09,0,0,1-13-3.62c-7.63,8.4-18.25,15.24-30.76,19.73L122.11,122.9l-6.27-9.31c-.33,0-.67.07-1,.09a7,7,0,0,1,.57,2.77,7.26,7.26,0,0,1-1.53,4.41l2.66,9.61L105.86,146l-.76-1.1V.05H106C138.05,0,165.61,14,177.8,34a24.93,24.93,0,0,1,6.71-.92C199.42,33,211.51,46.25,211.51,62.54Z"/></g></g></svg>