<svg xmlns="http://www.w3.org/2000/svg" viewBox="0 0 482.45 482.45"><defs><style>.cls-1,.cls-5,.cls-6{fill:#fff;}.cls-1{stroke:#ef7c54;}.cls-1,.cls-12,.cls-6,.cls-7,.cls-9{stroke-miterlimit:10;}.cls-1,.cls-12,.cls-13,.cls-6,.cls-7,.cls-9{stroke-width:3px;}.cls-2{fill:#ef7c54;}.cls-3{fill:#432918;}.cls-4{fill:#e2b78d;}.cls-12,.cls-6,.cls-9{stroke:#1d1d1b;}.cls-12,.cls-13,.cls-14,.cls-15,.cls-7,.cls-9{fill:none;}.cls-7{stroke:#d81c1d;}.cls-8{fill:#1d1d1b;}.cls-13,.cls-14,.cls-15,.cls-9{stroke-linecap:round;}.cls-10{fill:#d81c1d;}.cls-11{fill:#e84049;}.cls-13,.cls-14,.cls-15{stroke:#3c3c3b;stroke-linejoin:round;}.cls-14{stroke-width:2px;}</style></defs><g id="Layer_2" data-name="Layer 2"><g id="Layer_1-2" data-name="Layer 1"><rect class="cls-1" x="1.5" y="1.5" width="479.45" height="479.45"/><circle class="cls-2" cx="384.3" cy="203.88" r="76.16"/><ellipse class="cls-3" cx="431.45" cy="202.56" rx="16.11" ry="17.99"/><ellipse class="cls-4" cx="428.7" cy="203.6" rx="11.28" ry="12.32"/><ellipse class="cls-3" cx="336.99" cy="202.56" rx="16.11" ry="17.99"/><ellipse class="cls-4" cx="339.74" cy="203.6" rx="11.28" ry="12.32"/><ellipse class="cls-3" cx="384.22" cy="199.32" rx="47.23" ry="34.26"/><path class="cls-4" d="M420.64,202.56c-.3,9-6.59,14.8-9.15,17.16-9.51,8.81-21.65,8.88-27.27,8.92-5.86,0-19.13.11-28.59-9.53-2-2.07-7.75-7.89-7.83-16.55-.08-8.85,5.73-17.87,13.48-20.33a21.44,21.44,0,0,1,10.34-.22c7,1.28,7.83,4.47,12.72,4.31s5.31-3.24,11.85-4.74c1.57-.36,6.26-1.44,10.86,0C415,184,421,193.47,420.64,202.56Z"/><path class="cls-2" d="M385.68,207.45a2.94,2.94,0,0,1-3.29,0L380,205.24l-2.42-2.2c-.73-.67.18-1.5,1.64-1.5h9.71c1.46,0,2.38.83,1.64,1.5l-2.42,2.2Z"/><path class="cls-5" d="M409.52,207.8a6.58,6.58,0,0,0-4.46-.57l-20.36,3.36-20.36-3.36a6.56,6.56,0,0,0-4.46.57,6.49,6.49,0,0,0-3.47,6.31c0,5.89,12.65,10.66,28.29,10.66S413,220,413,214.11A6.5,6.5,0,0,0,409.52,207.8Z"/><line class="cls-6" x1="362.62" y1="221.12" x2="362.62" y2="207.07"/><line class="cls-6" x1="373.42" y1="224.02" x2="373.42" y2="208.97"/><line class="cls-6" x1="405.57" y1="221.12" x2="405.57" y2="207.07"/><line class="cls-6" x1="394.9" y1="224.02" x2="394.9" y2="208.97"/><line class="cls-6" x1="384.22" y1="210.59" x2="384.22" y2="224.77"/><path class="cls-7" d="M409,207.8a6.56,6.56,0,0,0-4.46-.57l-20.36,3.36-20.36-3.36a6.57,6.57,0,0,0-4.46.57,6.49,6.49,0,0,0-3.47,6.31c0,5.89,12.65,10.66,28.29,10.66s28.29-4.77,28.29-10.66A6.48,6.48,0,0,0,409,207.8Z"/><path class="cls-5" d="M369.35,200.58l-6.73-2.3,4.26-5.69A7.11,7.11,0,0,1,369.35,200.58Z"/><path class="cls-8" d="M368.31,202.55A7.12,7.12,0,0,1,356.92,194a7,7,0,0,1,1.6-1.56,7.1,7.1,0,0,1,8.36.13l-4.26,5.69,6.73,2.3A7,7,0,0,1,368.31,202.55Z"/><line class="cls-9" x1="358.83" y1="192.35" x2="357.58" y2="189.99"/><line class="cls-9" x1="361.87" y1="191.69" x2="361.59" y2="189.03"/><line class="cls-9" x1="364.63" y1="191.63" x2="365.64" y2="189.16"/><path class="cls-5" d="M412.31,200.58l-6.74-2.3,4.27-5.69A7.11,7.11,0,0,1,412.31,200.58Z"/><path class="cls-8" d="M411.27,202.55a7.12,7.12,0,1,1-1.43-10l-4.27,5.69,6.74,2.3A7,7,0,0,1,411.27,202.55Z"/><line class="cls-9" x1="401.79" y1="192.35" x2="400.54" y2="189.99"/><line class="cls-9" x1="404.83" y1="191.69" x2="404.55" y2="189.03"/><line class="cls-9" x1="407.59" y1="191.63" x2="408.6" y2="189.16"/><circle class="cls-2" cx="93.76" cy="208.89" r="76.16"/><ellipse class="cls-3" cx="140.8" cy="208.14" rx="16.05" ry="17.92"/><ellipse class="cls-4" cx="138.06" cy="209.18" rx="11.23" ry="12.27"/><ellipse class="cls-3" cx="46.71" cy="208.14" rx="16.05" ry="17.92"/><ellipse class="cls-4" cx="49.45" cy="209.18" rx="11.23" ry="12.27"/><ellipse class="cls-3" cx="93.76" cy="204.92" rx="47.04" ry="34.13"/><path class="cls-4" d="M130,208.14c-.3,8.94-6.56,14.74-9.11,17.1-9.48,8.77-21.56,8.84-27.16,8.87-5.85,0-19.06.12-28.48-9.48-2-2.07-7.72-7.86-7.8-16.49-.09-8.82,5.71-17.8,13.42-20.25a21.32,21.32,0,0,1,10.31-.22c7,1.27,7.8,4.46,12.66,4.29s5.3-3.22,11.81-4.72c1.56-.36,6.23-1.43,10.82,0C124.43,189.7,130.34,199.09,130,208.14Z"/><path class="cls-6" d="M118.48,213.36a6.53,6.53,0,0,0-4.45-.57l-20.27,3.35-20.28-3.35a6.49,6.49,0,0,0-7.91,6.85c0,5.87,12.61,10.63,28.19,10.63s28.18-4.76,28.18-10.63A6.48,6.48,0,0,0,118.48,213.36Z"/><line class="cls-6" x1="72.24" y1="226.63" x2="72.24" y2="212.63"/><line class="cls-6" x1="115.03" y1="226.63" x2="115.03" y2="212.63"/><line class="cls-6" x1="83" y1="229.51" x2="83" y2="214.52"/><line class="cls-6" x1="104.39" y1="229.51" x2="104.39" y2="214.52"/><line class="cls-6" x1="93.76" y1="216.14" x2="93.76" y2="230.27"/><path class="cls-5" d="M121.74,206.17,115,203.88l4.24-5.67A7.1,7.1,0,0,1,121.74,206.17Z"/><path class="cls-8" d="M120.7,208.13a7.1,7.1,0,0,1-5.78,2.84,7.12,7.12,0,0,1-6.67-5,7.1,7.1,0,0,1,1.1-6.34,7.29,7.29,0,0,1,1.59-1.55,7.09,7.09,0,0,1,8.33.13L115,203.88l6.71,2.29A7.42,7.42,0,0,1,120.7,208.13Z"/><path class="cls-5" d="M79,206.17l-6.71-2.29,4.24-5.67A7.1,7.1,0,0,1,79,206.17Z"/><path class="cls-8" d="M77.91,208.13A7.1,7.1,0,0,1,72.13,211a7.12,7.12,0,0,1-6.67-5,7.1,7.1,0,0,1,1.1-6.34,7.29,7.29,0,0,1,1.59-1.55,7.09,7.09,0,0,1,8.33.13l-4.24,5.67L79,206.17A7.42,7.42,0,0,1,77.91,208.13Z"/><circle class="cls-10" cx="93.76" cy="206.17" r="8.08"/><path class="cls-11" d="M94.2,203.16a4.16,4.16,0,0,1,1,.29l-.6-.26a4.77,4.77,0,0,1,.92.55l-.51-.39a4.94,4.94,0,0,1,.88.89l-.39-.51a5.63,5.63,0,0,1,.67,1.17l-.25-.6a7.18,7.18,0,0,1,.44,1.65l-.09-.66a9.52,9.52,0,0,1,.07,1.41,2.5,2.5,0,0,0,5,0,9.12,9.12,0,0,0-1.36-5.27,6.86,6.86,0,0,0-4.48-3.09,1.89,1.89,0,0,0-1,0,1.85,1.85,0,0,0-.93.29,2.58,2.58,0,0,0-1.15,1.5,2.52,2.52,0,0,0,.26,1.92,2.33,2.33,0,0,0,1.49,1.15Z"/><circle class="cls-2" cx="241.23" cy="290.54" r="76.16"/><ellipse class="cls-3" cx="289.06" cy="289.4" rx="16.28" ry="18.18"/><ellipse class="cls-4" cx="286.29" cy="290.45" rx="11.4" ry="12.45"/><ellipse class="cls-3" cx="193.6" cy="289.4" rx="16.28" ry="18.18"/><ellipse class="cls-4" cx="196.38" cy="290.45" rx="11.4" ry="12.45"/><ellipse class="cls-3" cx="241.33" cy="286.13" rx="47.73" ry="34.63"/><path class="cls-4" d="M278.14,289.4c-.3,9.07-6.66,15-9.25,17.35-9.61,8.89-21.87,9-27.56,9-5.92,0-19.33.12-28.89-9.62-2.06-2.1-7.83-8-7.91-16.73-.09-8.94,5.79-18.06,13.62-20.55a21.64,21.64,0,0,1,10.45-.22c7.06,1.29,7.92,4.52,12.85,4.36s5.37-3.27,12-4.79c1.59-.37,6.33-1.46,11,0C272.45,270.69,278.45,280.21,278.14,289.4Z"/><path class="cls-6" d="M266.42,294.7a6.6,6.6,0,0,0-4.51-.58l-20.58,3.39-20.57-3.39a6.57,6.57,0,0,0-8,6.95c0,6,12.79,10.78,28.59,10.78s28.6-4.82,28.6-10.78A6.57,6.57,0,0,0,266.42,294.7Z"/><line class="cls-6" x1="219.5" y1="308.16" x2="219.5" y2="293.95"/><line class="cls-6" x1="262.91" y1="308.16" x2="262.91" y2="293.95"/><line class="cls-6" x1="230.42" y1="311.08" x2="230.42" y2="295.88"/><line class="cls-6" x1="252.12" y1="311.08" x2="252.12" y2="295.88"/><line class="cls-6" x1="241.33" y1="297.51" x2="241.33" y2="311.85"/><path class="cls-2" d="M242.81,294.34a3,3,0,0,1-3.32,0L237,292.11l-2.45-2.23c-.74-.67.18-1.51,1.66-1.51h9.81c1.48,0,2.4.84,1.67,1.51l-2.46,2.23Z"/><path class="cls-5" d="M267.44,287.11l-4.66-1.59,3-3.94A4.91,4.91,0,0,1,267.44,287.11Z"/><path class="cls-8" d="M266.72,288.47a4.92,4.92,0,1,1-6.78-7,4.94,4.94,0,0,1,5.79.09l-3,3.94,4.66,1.59A4.69,4.69,0,0,1,266.72,288.47Z"/><path class="cls-5" d="M224.16,287.11l-4.66-1.59,2.95-3.94A4.92,4.92,0,0,1,224.16,287.11Z"/><path class="cls-8" d="M223.44,288.47a4.89,4.89,0,0,1-4,2,4.84,4.84,0,0,1-2.88-1,4.92,4.92,0,1,1,5.9-7.88l-2.95,3.94,4.66,1.59A4.69,4.69,0,0,1,223.44,288.47Z"/><rect class="cls-12" x="209.77" y="279.95" width="19.47" height="11.13" rx="4.96"/><line class="cls-12" x1="228.34" y1="280.98" x2="254.07" y2="280.98"/><line class="cls-12" x1="211.71" y1="280.23" x2="194.89" y2="278.11"/><rect class="cls-12" x="253.18" y="279.95" width="19.47" height="11.13" rx="4.96"/><line class="cls-12" x1="270.85" y1="280.23" x2="287.67" y2="278.11"/><circle class="cls-2" cx="92.72" cy="391.09" r="76.16"/><ellipse class="cls-3" cx="140.44" cy="390.09" rx="16.18" ry="18.06"/><ellipse class="cls-4" cx="137.68" cy="391.14" rx="11.32" ry="12.37"/><ellipse class="cls-3" cx="45.59" cy="390.09" rx="16.18" ry="18.06"/><ellipse class="cls-4" cx="48.34" cy="391.14" rx="11.32" ry="12.37"/><ellipse class="cls-3" cx="93.01" cy="386.84" rx="47.43" ry="34.41"/><path class="cls-4" d="M129.58,390.09c-.3,9-6.62,14.86-9.19,17.24-9.55,8.84-21.73,8.91-27.38,8.95-5.89,0-19.21.11-28.71-9.57-2-2.08-7.78-7.92-7.86-16.62-.09-8.89,5.75-17.94,13.53-20.42a21.49,21.49,0,0,1,10.39-.21c7,1.28,7.86,4.49,12.77,4.32s5.33-3.25,11.9-4.76c1.57-.36,6.28-1.44,10.91,0C123.93,371.5,129.89,381,129.58,390.09Z"/><path class="cls-6" d="M117.93,395.36a6.51,6.51,0,0,0-4.48-.58L93,398.15l-20.44-3.37a6.54,6.54,0,0,0-8,6.91c0,5.92,12.71,10.71,28.41,10.71s28.41-4.79,28.41-10.71A6.52,6.52,0,0,0,117.93,395.36Z"/><line class="cls-6" x1="71.32" y1="408.73" x2="71.32" y2="394.62"/><line class="cls-6" x1="114.45" y1="408.73" x2="114.45" y2="394.62"/><line class="cls-6" x1="82.16" y1="411.64" x2="82.16" y2="396.53"/><line class="cls-6" x1="103.73" y1="411.64" x2="103.73" y2="396.53"/><line class="cls-6" x1="93.01" y1="398.15" x2="93.01" y2="412.4"/><path class="cls-2" d="M94.48,395a3,3,0,0,1-3.31,0l-2.43-2.21-2.44-2.22c-.74-.67.18-1.5,1.65-1.5H97.7c1.47,0,2.38.83,1.65,1.5l-2.44,2.22Z"/><path class="cls-9" d="M107.65,385.09a14.11,14.11,0,0,0,13.61,0"/><path class="cls-9" d="M64.58,385.09a14.11,14.11,0,0,0,13.61,0"/><path class="cls-13" d="M106.79,346.38h4.68l-4.68,4.35h4.68"/><path class="cls-13" d="M115.58,342h6.57l-6.57,6.09h6.57"/><path class="cls-14" d="M127.25,346.38h3.18l-3.18,3h3.18"/><path class="cls-15" d="M134.49,350h2.37l-2.37,2.2h2.37"/><circle class="cls-2" cx="390.8" cy="389.65" r="76.16"/><ellipse class="cls-3" cx="437.99" cy="388.65" rx="15.97" ry="17.83"/><ellipse class="cls-4" cx="435.26" cy="389.69" rx="11.18" ry="12.21"/><ellipse class="cls-3" cx="344.37" cy="388.65" rx="15.97" ry="17.83"/><ellipse class="cls-4" cx="347.09" cy="389.69" rx="11.18" ry="12.21"/><ellipse class="cls-3" cx="391.18" cy="385.45" rx="46.81" ry="33.96"/><path class="cls-4" d="M427.28,388.65c-.3,8.9-6.54,14.67-9.07,17-9.43,8.72-21.46,8.8-27,8.83-5.81,0-19,.11-28.34-9.44-2-2.06-7.68-7.82-7.76-16.41-.08-8.77,5.68-17.7,13.36-20.15a21.3,21.3,0,0,1,10.25-.21c6.92,1.26,7.77,4.43,12.6,4.27s5.27-3.21,11.75-4.7c1.56-.36,6.21-1.43,10.77,0C421.7,370.3,427.58,379.65,427.28,388.65Z"/><path class="cls-6" d="M372.82,409.43a4.9,4.9,0,0,0,3.36.43l15.37-2.53,15.36,2.53a4.91,4.91,0,0,0,6-5.19c0-4.45-9.55-8.05-21.35-8.05s-21.35,3.6-21.35,8.05A4.89,4.89,0,0,0,372.82,409.43Z"/><line class="cls-6" x1="407.85" y1="399.38" x2="407.85" y2="409.99"/><line class="cls-6" x1="375.43" y1="399.38" x2="375.43" y2="409.99"/><line class="cls-6" x1="399.7" y1="397.19" x2="399.7" y2="408.55"/><line class="cls-6" x1="383.49" y1="397.19" x2="383.49" y2="408.55"/><line class="cls-6" x1="391.55" y1="407.33" x2="391.55" y2="396.62"/><path class="cls-2" d="M392.63,393.5a2.93,2.93,0,0,1-3.26,0L387,391.31l-2.41-2.18c-.72-.66.19-1.49,1.63-1.49h9.63c1.45,0,2.35.83,1.63,1.49L395,391.31Z"/><path class="cls-5" d="M419,386.69l-6.68-2.27,4.23-5.65A7.05,7.05,0,0,1,419,386.69Z"/><path class="cls-8" d="M418,388.64a7,7,0,0,1-5.75,2.83,7.05,7.05,0,1,1,4.33-12.7l-4.23,5.65,6.68,2.27A7,7,0,0,1,418,388.64Z"/><path class="cls-5" d="M376.44,386.69l-6.67-2.27,4.22-5.65A7.05,7.05,0,0,1,376.44,386.69Z"/><path class="cls-8" d="M375.41,388.64a7.05,7.05,0,0,1-11.29-8.45,7.2,7.2,0,0,1,1.58-1.54,7,7,0,0,1,8.29.12l-4.22,5.65,6.67,2.27A6.78,6.78,0,0,1,375.41,388.64Z"/></g></g></svg>