<svg xmlns="http://www.w3.org/2000/svg" viewBox="0 0 155.72 107.3"><defs><style>.cls-1{fill:#d81c1d;}.cls-2,.cls-5{fill:#fff;}.cls-3{fill:#432918;}.cls-4{fill:#e2b78d;}.cls-5{stroke:#1d1d1b;stroke-miterlimit:10;stroke-width:3px;}.cls-6{fill:#ef7c54;}.cls-7{fill:#1d1d1b;}</style></defs><g id="Layer_2" data-name="Layer 2"><g id="Layer_1-2" data-name="Layer 1"><path class="cls-1" d="M83,86.81l.25-.16H72l.28.18-2.5,9,7.89,11.45,7.9-11.47Z"/><path class="cls-1" d="M85.26,84.6a5.89,5.89,0,0,1-2.88,4.88h0l-.21.13a9,9,0,0,1-9,0,1.82,1.82,0,0,1-.23-.15A5.87,5.87,0,0,1,70,84.6c0-3.44,3.41-6.23,7.62-6.23S85.26,81.16,85.26,84.6Z"/><polyline class="cls-2" points="84.04 81.74 89.73 90.19 107.56 76.09"/><polyline class="cls-2" points="70.82 81.74 65.13 90.19 47.29 76.09"/><ellipse class="cls-3" cx="135.92" cy="46.1" rx="19.8" ry="22.11"/><ellipse class="cls-4" cx="132.54" cy="47.38" rx="13.86" ry="15.14"/><ellipse class="cls-3" cx="19.8" cy="46.1" rx="19.8" ry="22.11"/><ellipse class="cls-4" cx="23.18" cy="47.38" rx="13.86" ry="15.14"/><ellipse class="cls-3" cx="77.86" cy="42.12" rx="58.06" ry="42.12"/><path class="cls-4" d="M122.63,46.1c-.37,11-8.1,18.19-11.25,21.1C99.69,78,84.77,78.11,77.86,78.15c-7.21,0-23.52.14-35.15-11.7-2.5-2.55-9.52-9.7-9.62-20.35-.1-10.88,7-22,16.57-25,5.16-1.64,10.33-.7,12.71-.26C71,22.41,72,26.33,78,26.14c5.85-.2,6.54-4,14.57-5.83,1.93-.45,7.7-1.77,13.36,0C115.71,23.34,123,34.93,122.63,46.1Z"/><path class="cls-5" d="M108.37,52.54a8.09,8.09,0,0,0-5.49-.7L77.86,56l-25-4.13a8.09,8.09,0,0,0-5.49.7,8,8,0,0,0-4.27,7.75c0,7.25,15.56,13.11,34.78,13.11s34.78-5.86,34.78-13.11A8,8,0,0,0,108.37,52.54Z"/><line class="cls-5" x1="51.3" y1="68.92" x2="51.3" y2="51.64"/><line class="cls-5" x1="104.11" y1="68.92" x2="104.11" y2="51.64"/><line class="cls-5" x1="64.58" y1="72.48" x2="64.58" y2="53.98"/><line class="cls-5" x1="90.98" y1="72.48" x2="90.98" y2="53.98"/><line class="cls-5" x1="77.86" y1="55.97" x2="77.86" y2="73.4"/><path class="cls-6" d="M79.65,52.11a3.62,3.62,0,0,1-4,0l-3-2.71-3-2.72c-.9-.81.23-1.84,2-1.84H83.6c1.8,0,2.92,1,2,1.84l-3,2.72Z"/><path class="cls-2" d="M112.39,43.66l-8.28-2.82,5.24-7A8.75,8.75,0,0,1,112.39,43.66Z"/><path class="cls-7" d="M111.11,46.08a8.74,8.74,0,1,1-14-10.48,8.44,8.44,0,0,1,2-1.91,8.74,8.74,0,0,1,10.28.15l-5.24,7,8.28,2.82A8.54,8.54,0,0,1,111.11,46.08Z"/><path class="cls-2" d="M59.58,43.66,51.3,40.84l5.24-7A8.75,8.75,0,0,1,59.58,43.66Z"/><path class="cls-7" d="M58.3,46.08a8.74,8.74,0,1,1-14-10.48,8.44,8.44,0,0,1,2-1.91,8.74,8.74,0,0,1,10.28.15l-5.24,7,8.28,2.82A8.54,8.54,0,0,1,58.3,46.08Z"/></g></g></svg>