<svg xmlns="http://www.w3.org/2000/svg" viewBox="0 0 182.95 98.97"><defs><style>.cls-1{fill:#432918;}.cls-2{fill:#e2b78d;}.cls-3,.cls-5{fill:#fff;}.cls-3{stroke:#1d1d1b;stroke-miterlimit:10;stroke-width:3px;}.cls-4{fill:#ef7c54;}.cls-6{fill:#1d1d1b;}</style></defs><g id="Layer_2" data-name="Layer 2"><g id="Layer_1-2" data-name="Layer 1"><ellipse class="cls-1" cx="159.69" cy="54.16" rx="23.27" ry="25.98"/><ellipse class="cls-2" cx="155.72" cy="55.66" rx="16.29" ry="17.79"/><ellipse class="cls-1" cx="23.27" cy="54.16" rx="23.27" ry="25.98"/><ellipse class="cls-2" cx="27.23" cy="55.66" rx="16.29" ry="17.79"/><ellipse class="cls-1" cx="91.48" cy="49.49" rx="68.21" ry="49.49"/><path class="cls-2" d="M144.08,54.16c-.43,13-9.52,21.37-13.22,24.79C117.12,91.67,99.6,91.77,91.48,91.82c-8.47.05-27.64.17-41.3-13.75-2.94-3-11.19-11.4-11.31-23.91-.12-12.78,8.28-25.81,19.47-29.37,6.07-1.93,12.15-.82,14.94-.31,10.09,1.84,11.31,6.46,18.36,6.23,6.87-.23,7.68-4.68,17.12-6.85,2.27-.52,9-2.08,15.7,0C136,27.42,144.52,41,144.08,54.16Z"/><path class="cls-3" d="M127.32,61.73a9.39,9.39,0,0,0-6.44-.82l-29.4,4.84-29.4-4.84a9.38,9.38,0,0,0-11.46,9.93c0,8.51,18.27,15.4,40.86,15.4s40.86-6.89,40.86-15.4A9.38,9.38,0,0,0,127.32,61.73Z"/><line class="cls-3" x1="60.27" y1="80.97" x2="60.27" y2="60.67"/><line class="cls-3" x1="122.32" y1="80.97" x2="122.32" y2="60.67"/><line class="cls-3" x1="75.88" y1="85.15" x2="75.88" y2="63.42"/><line class="cls-3" x1="106.9" y1="85.15" x2="106.9" y2="63.42"/><line class="cls-3" x1="91.48" y1="65.76" x2="91.48" y2="86.24"/><path class="cls-4" d="M93.72,62.7a4.28,4.28,0,0,1-4.75,0l-3.51-3.19L82,56.32c-1.06-1,.26-2.16,2.37-2.16h14c2.11,0,3.43,1.2,2.37,2.16l-3.51,3.19Z"/><path class="cls-5" d="M132.05,51.3,122.32,48l6.16-8.22A10.28,10.28,0,0,1,132.05,51.3Z"/><path class="cls-6" d="M130.54,54.14a10.27,10.27,0,1,1-2.06-14.38L122.32,48l9.73,3.32A10.12,10.12,0,0,1,130.54,54.14Z"/><path class="cls-5" d="M70,51.3,60.27,48l6.16-8.22A10.27,10.27,0,0,1,70,51.3Z"/><path class="cls-6" d="M68.5,54.14a10.28,10.28,0,1,1-2.07-14.38L60.27,48,70,51.3A10.35,10.35,0,0,1,68.5,54.14Z"/></g></g></svg>