<svg xmlns="http://www.w3.org/2000/svg" viewBox="0 0 460.2 459.94"><defs><style>.cls-1{fill:#f2abcd;}.cls-1,.cls-2{stroke:#fff;}.cls-1,.cls-11,.cls-15,.cls-16,.cls-2,.cls-5{stroke-miterlimit:10;}.cls-1,.cls-11,.cls-13,.cls-15,.cls-16,.cls-2,.cls-5{stroke-width:3px;}.cls-2{fill:#f18a6e;}.cls-3{fill:#432918;}.cls-4{fill:#e2b78d;}.cls-17,.cls-5,.cls-6{fill:#fff;}.cls-11,.cls-15,.cls-5{stroke:#1d1d1b;}.cls-7{fill:#1d1d1b;}.cls-8{fill:#d81c1d;}.cls-9{fill:#e84049;}.cls-10{fill:#ef7c54;}.cls-11,.cls-12,.cls-13,.cls-14,.cls-15,.cls-16{fill:none;}.cls-11,.cls-12,.cls-13,.cls-14{stroke-linecap:round;}.cls-12,.cls-13,.cls-14{stroke:#3c3c3b;stroke-linejoin:round;}.cls-12{stroke-width:4px;}.cls-14{stroke-width:2px;}.cls-16{stroke:#d81c1d;}.cls-17{font-size:14px;font-family:MyanmarText-Bold, Myanmar Text;font-weight:700;}</style></defs><g id="Layer_2" data-name="Layer 2"><g id="Layer_1-2" data-name="Layer 1"><rect class="cls-1" x="154.04" y="306.13" width="152.31" height="152.31"/><rect class="cls-2" x="1.5" y="1.5" width="152.31" height="152.31"/><rect class="cls-2" x="153.83" y="153.94" width="152.31" height="152.31"/><rect class="cls-2" x="1.51" y="306.13" width="152.31" height="152.31"/><rect class="cls-2" x="306.39" y="1.7" width="152.31" height="152.31"/><rect class="cls-2" x="306.39" y="306.13" width="152.31" height="152.31"/><rect class="cls-1" x="306.39" y="153.81" width="152.31" height="152.31"/><rect class="cls-1" x="154.04" y="1.5" width="152.31" height="152.31"/><rect class="cls-1" x="1.5" y="153.81" width="152.31" height="152.31"/><ellipse class="cls-3" cx="130.55" cy="230.89" rx="18" ry="20"/><ellipse class="cls-4" cx="127.05" cy="232.39" rx="12.5" ry="13.5"/><ellipse class="cls-3" cx="25.55" cy="230.89" rx="18" ry="20"/><ellipse class="cls-4" cx="28.05" cy="232.39" rx="12.5" ry="13.5"/><ellipse class="cls-3" cx="78.05" cy="227.89" rx="52.5" ry="38"/><path class="cls-4" d="M118.17,231.12c-.33,10-7.32,16.44-10.16,19.07-10.57,9.78-24,9.86-30.29,9.9-6.52,0-21.25.13-31.76-10.58-2.26-2.3-8.61-8.76-8.7-18.39-.09-9.82,6.37-19.84,15-22.58,4.67-1.49,9.34-.63,11.49-.24,7.76,1.42,8.71,5,14.13,4.79s5.9-3.6,13.16-5.27c1.75-.4,7-1.6,12.07,0C111.92,210.56,118.51,221,118.17,231.12Z"/><path class="cls-5" d="M105.29,237a7.23,7.23,0,0,0-5-.63L77.72,240l-22.61-3.72A7.22,7.22,0,0,0,46.29,244c0,6.55,14.06,11.85,31.43,11.85s31.42-5.3,31.42-11.85A7.2,7.2,0,0,0,105.29,237Z"/><line class="cls-5" x1="54.05" y1="251.89" x2="54.05" y2="235.89"/><line class="cls-5" x1="101.05" y1="251.89" x2="101.05" y2="235.89"/><line class="cls-5" x1="66.05" y1="254.89" x2="66.05" y2="237.89"/><line class="cls-5" x1="90.05" y1="254.89" x2="90.05" y2="237.89"/><line class="cls-5" x1="78.05" y1="239.89" x2="78.05" y2="255.89"/><path class="cls-6" d="M108.92,228.92l-7.48-2.55,4.73-6.32A7.89,7.89,0,0,1,108.92,228.92Z"/><path class="cls-7" d="M107.76,231.11a7.91,7.91,0,1,1-1.59-11.06l-4.73,6.32,7.48,2.55A7.58,7.58,0,0,1,107.76,231.11Z"/><path class="cls-6" d="M61.2,228.92l-7.48-2.55,4.74-6.32A7.89,7.89,0,0,1,61.2,228.92Z"/><path class="cls-7" d="M60.05,231.11a7.91,7.91,0,1,1-1.59-11.06l-4.74,6.32,7.48,2.55A7.8,7.8,0,0,1,60.05,231.11Z"/><circle class="cls-8" cx="77.55" cy="228.89" r="9"/><path class="cls-9" d="M78.29,225.3a4.37,4.37,0,0,1,1.14.31l-.59-.25a5.86,5.86,0,0,1,1,.61l-.51-.39a5.8,5.8,0,0,1,1,1l-.39-.5a6.34,6.34,0,0,1,.74,1.29l-.25-.59a7.81,7.81,0,0,1,.49,1.84l-.09-.67a9.3,9.3,0,0,1,.08,1.58,2.5,2.5,0,0,0,5,0,9.85,9.85,0,0,0-1.48-5.73,7.29,7.29,0,0,0-4.82-3.31,2.75,2.75,0,0,0-1.93.25,2.48,2.48,0,0,0-.89,3.42,2.39,2.39,0,0,0,1.49,1.15Z"/><ellipse class="cls-3" cx="433.29" cy="228.98" rx="17.24" ry="19.25"/><ellipse class="cls-4" cx="430.35" cy="230.09" rx="12.07" ry="13.18"/><ellipse class="cls-3" cx="332.19" cy="228.98" rx="17.24" ry="19.25"/><ellipse class="cls-4" cx="335.13" cy="230.09" rx="12.07" ry="13.18"/><ellipse class="cls-3" cx="382.74" cy="225.52" rx="50.55" ry="36.67"/><path class="cls-4" d="M421.72,229c-.32,9.6-7.05,15.84-9.79,18.37-10.18,9.42-23.17,9.5-29.19,9.54-6.28,0-20.48.12-30.6-10.19-2.18-2.23-8.29-8.45-8.38-17.72-.09-9.47,6.14-19.12,14.43-21.76,4.49-1.44,9-.61,11.07-.23,7.47,1.36,8.38,4.78,13.61,4.61s5.69-3.47,12.68-5.08c1.68-.38,6.7-1.54,11.63,0C415.7,209.16,422.05,219.25,421.72,229Z"/><path class="cls-5" d="M409.31,234.59a7,7,0,0,0-4.78-.61l-21.79,3.59L361,234a7,7,0,0,0-8.49,7.36c0,6.31,13.55,11.41,30.28,11.41S413,247.65,413,241.34A6.94,6.94,0,0,0,409.31,234.59Z"/><line class="cls-5" x1="359.62" y1="248.85" x2="359.62" y2="233.8"/><line class="cls-5" x1="405.6" y1="248.85" x2="405.6" y2="233.8"/><line class="cls-5" x1="371.18" y1="251.95" x2="371.18" y2="235.84"/><line class="cls-5" x1="394.17" y1="251.95" x2="394.17" y2="235.84"/><line class="cls-5" x1="382.74" y1="237.57" x2="382.74" y2="252.75"/><path class="cls-10" d="M384.3,234.21a3.14,3.14,0,0,1-3.52,0l-2.59-2.36-2.6-2.36c-.78-.71.19-1.6,1.76-1.6h10.39c1.56,0,2.54.89,1.76,1.6l-2.6,2.36Z"/><path class="cls-11" d="M398.34,223.65a15,15,0,0,0,14.51,0"/><path class="cls-11" d="M352.44,223.65a15,15,0,0,0,14.5,0"/><path class="cls-12" d="M397.42,182.39h5l-5,4.63h5"/><path class="cls-12" d="M406.8,177.68h7l-7,6.48h7"/><path class="cls-13" d="M419.24,182.39h3.39l-3.39,3.15h3.39"/><path class="cls-14" d="M427,186.24h2.52L427,188.58h2.52"/><ellipse class="cls-3" cx="281.66" cy="387.47" rx="17.17" ry="19.17"/><ellipse class="cls-4" cx="278.74" cy="388.58" rx="12.02" ry="13.13"/><ellipse class="cls-3" cx="181" cy="387.47" rx="17.17" ry="19.17"/><ellipse class="cls-4" cx="183.93" cy="388.58" rx="12.02" ry="13.13"/><ellipse class="cls-3" cx="231.33" cy="384.02" rx="50.33" ry="36.52"/><path class="cls-4" d="M270.15,387.47c-.32,9.57-7,15.77-9.76,18.29-10.13,9.39-23.06,9.47-29.06,9.5-6.25,0-20.39.12-30.47-10.15-2.17-2.21-8.25-8.41-8.34-17.64-.09-9.43,6.11-19,14.36-21.67,4.48-1.42,9-.6,11-.23,7.44,1.36,8.34,4.77,13.55,4.6,5.06-.17,5.66-3.45,12.63-5.06,1.67-.38,6.67-1.53,11.58,0C264.15,367.74,270.47,377.79,270.15,387.47Z"/><path class="cls-5" d="M257.78,393.06a6.93,6.93,0,0,0-4.75-.61L231.33,396l-21.69-3.58a6.94,6.94,0,0,0-8.46,7.33c0,6.28,13.49,11.36,30.15,11.36s30.15-5.08,30.15-11.36A6.9,6.9,0,0,0,257.78,393.06Z"/><line class="cls-5" x1="208.31" y1="407.26" x2="208.31" y2="392.28"/><line class="cls-5" x1="254.09" y1="407.26" x2="254.09" y2="392.28"/><line class="cls-5" x1="219.82" y1="410.34" x2="219.82" y2="394.3"/><line class="cls-5" x1="242.71" y1="410.34" x2="242.71" y2="394.3"/><line class="cls-5" x1="231.33" y1="396.03" x2="231.33" y2="411.14"/><path class="cls-10" d="M232.89,392.68a3.16,3.16,0,0,1-3.51,0l-2.58-2.35L224.21,388c-.78-.71.19-1.59,1.75-1.59h10.35c1.56,0,2.53.88,1.75,1.59l-2.58,2.35Z"/><path class="cls-6" d="M258.87,385.06,254,383.38l3.11-4.15A5.2,5.2,0,0,1,258.87,385.06Z"/><path class="cls-7" d="M258.11,386.5a5.21,5.21,0,0,1-7.27,1,5.11,5.11,0,0,1-1.85-2.62,5.21,5.21,0,0,1,.8-4.65,5,5,0,0,1,1.17-1.13,5.16,5.16,0,0,1,6.1.09L254,383.38l4.92,1.68A5.39,5.39,0,0,1,258.11,386.5Z"/><path class="cls-6" d="M213.23,385.06l-4.92-1.68,3.11-4.15A5.2,5.2,0,0,1,213.23,385.06Z"/><path class="cls-7" d="M212.47,386.5a5.21,5.21,0,0,1-7.27,1,5.11,5.11,0,0,1-1.85-2.62,5.18,5.18,0,0,1,.8-4.65,5,5,0,0,1,1.17-1.13,5.16,5.16,0,0,1,6.1.09l-3.11,4.15,4.92,1.68A5.69,5.69,0,0,1,212.47,386.5Z"/><rect class="cls-15" x="198.05" y="377.51" width="20.53" height="11.74" rx="5.18"/><line class="cls-15" x1="217.63" y1="378.59" x2="244.76" y2="378.59"/><line class="cls-15" x1="200.09" y1="377.81" x2="182.36" y2="375.57"/><rect class="cls-15" x="243.83" y="377.51" width="20.53" height="11.74" rx="5.18"/><line class="cls-15" x1="262.46" y1="377.81" x2="280.19" y2="375.57"/><ellipse class="cls-3" cx="432.66" cy="385.71" rx="17.02" ry="19.01"/><ellipse class="cls-4" cx="429.75" cy="386.81" rx="11.92" ry="13.02"/><ellipse class="cls-3" cx="332.84" cy="385.71" rx="17.02" ry="19.01"/><ellipse class="cls-4" cx="335.74" cy="386.81" rx="11.92" ry="13.02"/><ellipse class="cls-3" cx="382.75" cy="382.29" rx="49.91" ry="36.21"/><path class="cls-4" d="M421.24,385.71c-.32,9.48-7,15.63-9.68,18.14-10.05,9.3-22.87,9.38-28.81,9.41-6.2,0-20.22.12-30.22-10.06-2.15-2.19-8.18-8.34-8.27-17.49-.09-9.36,6.06-18.89,14.24-21.49,4.44-1.42,8.89-.6,10.93-.23,7.38,1.35,8.28,4.73,13.44,4.56s5.62-3.43,12.53-5c1.65-.39,6.61-1.53,11.48,0C415.29,366.14,421.56,376.1,421.24,385.71Z"/><path class="cls-10" d="M384.29,390.87a3.11,3.11,0,0,1-3.48,0l-2.56-2.33-2.57-2.33c-.77-.7.2-1.58,1.74-1.58h10.26c1.55,0,2.51.88,1.74,1.58l-2.57,2.33Z"/><path class="cls-6" d="M409.48,391.25a6.87,6.87,0,0,0-4.71-.61l-21.52,3.55-21.51-3.55a6.88,6.88,0,0,0-8.38,7.27c0,6.23,13.37,11.27,29.89,11.27s29.9-5,29.9-11.27A6.84,6.84,0,0,0,409.48,391.25Z"/><line class="cls-5" x1="359.92" y1="405.32" x2="359.92" y2="390.47"/><line class="cls-5" x1="371.33" y1="408.38" x2="371.33" y2="392.48"/><line class="cls-5" x1="405.31" y1="405.32" x2="405.31" y2="390.47"/><line class="cls-5" x1="394.03" y1="408.38" x2="394.03" y2="392.48"/><line class="cls-5" x1="382.75" y1="394.19" x2="382.75" y2="409.18"/><path class="cls-16" d="M409,391.25a6.91,6.91,0,0,0-4.72-.61l-21.51,3.55-21.51-3.55a6.88,6.88,0,0,0-8.39,7.27c0,6.23,13.37,11.27,29.9,11.27s29.89-5,29.89-11.27A6.85,6.85,0,0,0,409,391.25Z"/><path class="cls-6" d="M367,383.61l-7.12-2.42,4.5-6A7.51,7.51,0,0,1,367,383.61Z"/><path class="cls-7" d="M365.94,385.69a7.47,7.47,0,0,1-6.13,3,7.39,7.39,0,0,1-4.4-1.49,7.51,7.51,0,0,1-1.51-10.53,7.25,7.25,0,0,1,1.68-1.64,7.51,7.51,0,0,1,8.84.13l-4.5,6,7.12,2.42A7.71,7.71,0,0,1,365.94,385.69Z"/><line class="cls-11" x1="355.91" y1="374.91" x2="354.59" y2="372.42"/><line class="cls-11" x1="359.13" y1="374.22" x2="358.83" y2="371.41"/><line class="cls-11" x1="362.04" y1="374.15" x2="363.12" y2="371.54"/><path class="cls-6" d="M412.43,383.61l-7.12-2.42,4.51-6A7.51,7.51,0,0,1,412.43,383.61Z"/><path class="cls-7" d="M411.33,385.69a7.46,7.46,0,0,1-6.13,3,7.38,7.38,0,0,1-4.39-1.49,7.52,7.52,0,1,1,9-12l-4.51,6,7.12,2.42A7.44,7.44,0,0,1,411.33,385.69Z"/><line class="cls-11" x1="401.31" y1="374.91" x2="399.99" y2="372.42"/><line class="cls-11" x1="404.52" y1="374.22" x2="404.23" y2="371.41"/><line class="cls-11" x1="407.44" y1="374.15" x2="408.51" y2="371.54"/><ellipse class="cls-3" cx="129.37" cy="388.17" rx="17.51" ry="19.55"/><ellipse class="cls-4" cx="126.38" cy="389.31" rx="12.25" ry="13.39"/><ellipse class="cls-3" cx="26.72" cy="388.17" rx="17.51" ry="19.55"/><ellipse class="cls-4" cx="29.7" cy="389.31" rx="12.25" ry="13.39"/><ellipse class="cls-3" cx="78.04" cy="384.66" rx="51.33" ry="37.24"/><path class="cls-4" d="M117.62,388.17c-.32,9.76-7.16,16.08-9.94,18.66-10.34,9.56-23.52,9.64-29.64,9.68-6.37,0-20.79.13-31.07-10.35-2.21-2.25-8.42-8.57-8.51-18-.09-9.61,6.23-19.41,14.65-22.09,4.57-1.46,9.14-.62,11.24-.24,7.59,1.39,8.51,4.86,13.82,4.69S84,367,91.05,365.37c1.71-.39,6.8-1.56,11.81,0C111.51,368.05,118,378.3,117.62,388.17Z"/><path class="cls-5" d="M105,393.87a7,7,0,0,0-4.85-.62L78,396.9l-22.12-3.65a7.06,7.06,0,0,0-8.62,7.47c0,6.41,13.75,11.59,30.74,11.59s30.75-5.18,30.75-11.59A7.06,7.06,0,0,0,105,393.87Z"/><line class="cls-5" x1="54.56" y1="408.35" x2="54.56" y2="393.07"/><line class="cls-5" x1="101.25" y1="408.35" x2="101.25" y2="393.07"/><line class="cls-5" x1="66.3" y1="411.49" x2="66.3" y2="395.14"/><line class="cls-5" x1="89.65" y1="411.49" x2="89.65" y2="395.14"/><line class="cls-5" x1="78.04" y1="396.9" x2="78.04" y2="412.31"/><path class="cls-10" d="M79.63,393.49a3.22,3.22,0,0,1-3.57,0l-2.64-2.4-2.64-2.4c-.79-.72.2-1.63,1.79-1.63H83.12c1.59,0,2.58.91,1.79,1.63l-2.64,2.4Z"/><path class="cls-6" d="M108.57,386l-7.32-2.5,4.63-6.19A7.75,7.75,0,0,1,108.57,386Z"/><path class="cls-7" d="M107.44,388.16a7.73,7.73,0,1,1-12.38-9.27,7.9,7.9,0,0,1,1.73-1.69,7.73,7.73,0,0,1,9.09.13l-4.63,6.19,7.32,2.5A7.87,7.87,0,0,1,107.44,388.16Z"/><path class="cls-6" d="M61.89,386l-7.33-2.5,4.64-6.19A7.75,7.75,0,0,1,61.89,386Z"/><path class="cls-7" d="M60.75,388.16a7.73,7.73,0,1,1-1.55-10.83l-4.64,6.19,7.33,2.5A7.9,7.9,0,0,1,60.75,388.16Z"/><ellipse class="cls-3" cx="434.4" cy="79.4" rx="17.45" ry="19.48"/><ellipse class="cls-4" cx="431.43" cy="80.53" rx="12.21" ry="13.34"/><ellipse class="cls-3" cx="332.1" cy="79.4" rx="17.45" ry="19.48"/><ellipse class="cls-4" cx="335.08" cy="80.53" rx="12.21" ry="13.34"/><ellipse class="cls-3" cx="383.25" cy="75.9" rx="51.15" ry="37.11"/><path class="cls-4" d="M422.7,79.4c-.33,9.72-7.14,16-9.91,18.59-10.31,9.54-23.45,9.62-29.54,9.65-6.35,0-20.72.13-31-10.31-2.21-2.25-8.39-8.55-8.48-17.93-.09-9.58,6.21-19.35,14.59-22,4.56-1.45,9.11-.62,11.21-.23,7.56,1.38,8.48,4.84,13.77,4.66s5.76-3.5,12.84-5.13c1.69-.39,6.78-1.56,11.76,0C416.6,59.35,423,69.56,422.7,79.4Z"/><path class="cls-5" d="M363.19,102.1a5.33,5.33,0,0,0,3.68.47l16.78-2.76,16.79,2.76A5.36,5.36,0,0,0,407,96.9c0-4.86-10.43-8.79-23.33-8.79S360.32,92,360.32,96.9A5.36,5.36,0,0,0,363.19,102.1Z"/><line class="cls-5" x1="401.47" y1="91.12" x2="401.47" y2="102.71"/><line class="cls-5" x1="366.05" y1="91.12" x2="366.05" y2="102.71"/><line class="cls-5" x1="392.56" y1="88.73" x2="392.56" y2="101.14"/><line class="cls-5" x1="374.85" y1="88.73" x2="374.85" y2="101.14"/><line class="cls-5" x1="383.65" y1="99.81" x2="383.65" y2="88.11"/><path class="cls-10" d="M384.83,84.7a3.2,3.2,0,0,1-3.56,0l-2.63-2.39L376,79.92c-.79-.72.2-1.62,1.79-1.62h10.51c1.58,0,2.57.9,1.78,1.62l-2.63,2.39Z"/><path class="cls-6" d="M413.68,77.26l-7.3-2.49L411,68.6A7.71,7.71,0,0,1,413.68,77.26Z"/><path class="cls-7" d="M412.55,79.39a7.71,7.71,0,0,1-12.34-9.24,7.44,7.44,0,0,1,1.73-1.68,7.7,7.7,0,0,1,9.06.13l-4.62,6.17,7.3,2.49A8,8,0,0,1,412.55,79.39Z"/><path class="cls-6" d="M367.15,77.26l-7.3-2.49,4.62-6.17A7.71,7.71,0,0,1,367.15,77.26Z"/><path class="cls-7" d="M366,79.39a7.7,7.7,0,1,1-12.33-9.24,7.4,7.4,0,0,1,1.72-1.68,7.7,7.7,0,0,1,9.06.13l-4.62,6.17,7.3,2.49A7.69,7.69,0,0,1,366,79.39Z"/><path class="cls-8" d="M235,113.65l.22-.14h-9.82a1.88,1.88,0,0,0,.23.16l-2.17,7.84,6.85,9.93,6.86-10Z"/><path class="cls-8" d="M236.92,111.73a5.12,5.12,0,0,1-2.5,4.24h0l-.19.11a7.81,7.81,0,0,1-7.84,0l-.21-.13a5.12,5.12,0,0,1-2.5-4.24c0-3,3-5.41,6.63-5.41S236.92,108.74,236.92,111.73Z"/><polyline class="cls-6" points="235.86 109.25 240.8 116.58 256.28 104.35"/><polyline class="cls-6" points="224.38 109.25 219.44 116.58 203.96 104.35"/><ellipse class="cls-3" cx="280.9" cy="78.3" rx="17.19" ry="19.2"/><ellipse class="cls-4" cx="277.96" cy="79.42" rx="12.03" ry="13.15"/><ellipse class="cls-3" cx="180.09" cy="78.3" rx="17.19" ry="19.2"/><ellipse class="cls-4" cx="183.02" cy="79.42" rx="12.03" ry="13.15"/><ellipse class="cls-3" cx="230.49" cy="74.85" rx="50.4" ry="36.57"/><path class="cls-4" d="M269.36,78.3c-.32,9.58-7,15.8-9.76,18.32-10.16,9.4-23.1,9.48-29.11,9.51-6.26,0-20.41.13-30.51-10.16-2.17-2.21-8.27-8.42-8.35-17.67-.09-9.44,6.11-19.06,14.38-21.69,4.48-1.43,9-.61,11-.23,7.45,1.36,8.36,4.77,13.57,4.6s5.67-3.46,12.65-5.06c1.67-.39,6.68-1.54,11.59,0C263.35,58.55,269.69,68.61,269.36,78.3Z"/><path class="cls-5" d="M257,83.9a7,7,0,0,0-4.76-.61l-21.73,3.58-21.72-3.58a6.94,6.94,0,0,0-8.47,7.34c0,6.29,13.51,11.38,30.19,11.38s30.2-5.09,30.2-11.38A7,7,0,0,0,257,83.9Z"/><line class="cls-5" x1="207.44" y1="98.12" x2="207.44" y2="83.12"/><line class="cls-5" x1="253.28" y1="98.12" x2="253.28" y2="83.12"/><line class="cls-5" x1="218.96" y1="101.21" x2="218.96" y2="85.15"/><line class="cls-5" x1="241.89" y1="101.21" x2="241.89" y2="85.15"/><line class="cls-5" x1="230.49" y1="86.87" x2="230.49" y2="102.01"/><path class="cls-10" d="M232.05,83.53a3.2,3.2,0,0,1-3.51,0L226,81.17l-2.59-2.36c-.78-.71.19-1.59,1.76-1.59h10.36c1.56,0,2.53.88,1.75,1.59l-2.59,2.36Z"/><path class="cls-6" d="M260.47,76.19l-7.19-2.45,4.55-6.08A7.59,7.59,0,0,1,260.47,76.19Z"/><path class="cls-7" d="M259.36,78.29a7.59,7.59,0,0,1-12.16-9.1,7.47,7.47,0,0,1,1.71-1.66,7.6,7.6,0,0,1,8.92.13l-4.55,6.08,7.19,2.45A7.44,7.44,0,0,1,259.36,78.29Z"/><path class="cls-6" d="M214.63,76.19l-7.19-2.45L212,67.66A7.61,7.61,0,0,1,214.63,76.19Z"/><path class="cls-7" d="M213.52,78.29A7.6,7.6,0,1,1,212,67.66l-4.55,6.08,7.19,2.45A7.44,7.44,0,0,1,213.52,78.29Z"/><text/><text class="cls-17" transform="translate(183.14 179.72)">PERSONALITY <tspan x="29.59" y="16.8">QUIZ</tspan><tspan x="-9.91" y="33.6">WHICH MONKEY </tspan><tspan x="-4.89" y="50.4">ARE YOU? FIND </tspan><tspan x="-7.53" y="67.2">OUT IF YOU ARE </tspan><tspan x="-7.9" y="84">SUITABLE FOR A </tspan><tspan x="31.22" y="100.8">JOB!</tspan></text><ellipse class="cls-3" cx="128.09" cy="80.88" rx="17.51" ry="19.55"/><ellipse class="cls-4" cx="125.11" cy="82.01" rx="12.25" ry="13.39"/><ellipse class="cls-3" cx="25.44" cy="80.88" rx="17.51" ry="19.55"/><ellipse class="cls-4" cx="28.43" cy="82.01" rx="12.25" ry="13.39"/><ellipse class="cls-3" cx="76.77" cy="77.37" rx="51.33" ry="37.24"/><path class="cls-4" d="M116.35,80.88C116,90.63,109.18,97,106.4,99.54c-10.34,9.56-23.52,9.64-29.63,9.68-6.38,0-20.8.12-31.08-10.35-2.21-2.25-8.42-8.58-8.5-18-.09-9.62,6.23-19.42,14.64-22.1,4.57-1.45,9.14-.61,11.24-.23,7.59,1.39,8.52,4.86,13.82,4.68s5.78-3.51,12.88-5.15c1.71-.39,6.81-1.56,11.81,0C110.23,60.76,116.68,71,116.35,80.88Z"/><path class="cls-5" d="M103.74,86.58A7,7,0,0,0,98.89,86L76.77,89.61,54.64,86A7.07,7.07,0,0,0,46,93.43C46,99.84,59.77,105,76.77,105s30.74-5.18,30.74-11.59A7,7,0,0,0,103.74,86.58Z"/><line class="cls-5" x1="53.29" y1="101.05" x2="53.29" y2="85.78"/><line class="cls-5" x1="99.97" y1="101.05" x2="99.97" y2="85.78"/><line class="cls-5" x1="65.03" y1="104.2" x2="65.03" y2="87.85"/><line class="cls-5" x1="88.37" y1="104.2" x2="88.37" y2="87.85"/><line class="cls-5" x1="76.77" y1="89.61" x2="76.77" y2="105.02"/><path class="cls-10" d="M78.35,86.2a3.22,3.22,0,0,1-3.57,0l-2.64-2.4L69.5,81.4c-.79-.72.2-1.63,1.79-1.63H81.84c1.59,0,2.58.91,1.79,1.63L81,83.8Z"/><path class="cls-6" d="M107.29,78.73,100,76.23,104.61,70A7.73,7.73,0,0,1,107.29,78.73Z"/><path class="cls-7" d="M106.16,80.87A7.68,7.68,0,0,1,99.86,84a7.59,7.59,0,0,1-4.52-1.54A7.73,7.73,0,0,1,104.61,70L100,76.23l7.32,2.5A7.6,7.6,0,0,1,106.16,80.87Z"/><path class="cls-6" d="M60.61,78.73l-7.32-2.5L57.92,70A7.75,7.75,0,0,1,60.61,78.73Z"/><path class="cls-7" d="M59.48,80.87A7.7,7.7,0,0,1,53.18,84a7.72,7.72,0,0,1-7.28-5.44,7.73,7.73,0,0,1,12-8.48l-4.63,6.19,7.32,2.5A7.87,7.87,0,0,1,59.48,80.87Z"/></g></g></svg>