<svg xmlns="http://www.w3.org/2000/svg" viewBox="0 0 482 482"><defs><style>.cls-1,.cls-5,.cls-6{fill:#fff;}.cls-1{stroke:#ef7c54;}.cls-1,.cls-12,.cls-6,.cls-7,.cls-9{stroke-miterlimit:10;}.cls-1,.cls-12,.cls-13,.cls-6,.cls-7,.cls-9{stroke-width:3px;}.cls-2{fill:#ef7c54;}.cls-3{fill:#432918;}.cls-4{fill:#e2b78d;}.cls-12,.cls-6,.cls-9{stroke:#1d1d1b;}.cls-12,.cls-13,.cls-14,.cls-15,.cls-7,.cls-9{fill:none;}.cls-7{stroke:#d81c1d;}.cls-8{fill:#1d1d1b;}.cls-13,.cls-14,.cls-15,.cls-9{stroke-linecap:round;}.cls-10{fill:#d81c1d;}.cls-11{fill:#e84049;}.cls-13,.cls-14,.cls-15{stroke:#3c3c3b;stroke-linejoin:round;}.cls-14{stroke-width:2px;}</style></defs><g id="Layer_2" data-name="Layer 2"><g id="Layer_1-2" data-name="Layer 1"><rect class="cls-1" x="1.5" y="1.5" width="479" height="479"/><circle class="cls-2" cx="384" cy="204" r="76"/><ellipse class="cls-3" cx="431" cy="203" rx="16" ry="18"/><ellipse class="cls-4" cx="428.5" cy="203.5" rx="11.5" ry="12.5"/><ellipse class="cls-3" cx="336" cy="203" rx="16" ry="18"/><ellipse class="cls-4" cx="339.5" cy="203.5" rx="11.5" ry="12.5"/><ellipse class="cls-3" cx="384" cy="199.5" rx="47" ry="34.5"/><path class="cls-4" d="M420,202.83c-.3,9-6.59,14.79-9.15,17.16-9.51,8.81-21.64,8.88-27.27,8.91-5.86,0-19.13.12-28.59-9.52-2-2.07-7.75-7.89-7.83-16.55C347,194,352.86,185,360.6,182.49a21.54,21.54,0,0,1,10.34-.21c7,1.28,7.84,4.47,12.72,4.31s5.32-3.24,11.85-4.74c1.57-.36,6.26-1.44,10.87,0C414.33,184.31,420.27,193.74,420,202.83Z"/><path class="cls-2" d="M385,207.91a2.51,2.51,0,0,1-3.29,0l-2.42-2.21-2.43-2.2c-.73-.67.18-1.5,1.64-1.5h9.71c1.47,0,2.38.83,1.65,1.5l-2.43,2.2Z"/><path class="cls-5" d="M408.84,208.07a6.5,6.5,0,0,0-4.46-.57L384,210.86l-20.35-3.36a6.51,6.51,0,0,0-7.94,6.88c0,5.89,12.66,10.66,28.29,10.66s28.29-4.77,28.29-10.66A6.48,6.48,0,0,0,408.84,208.07Z"/><line class="cls-6" x1="361.5" y1="221" x2="361.5" y2="207"/><line class="cls-6" x1="372.5" y1="224" x2="372.5" y2="209"/><line class="cls-6" x1="404.5" y1="221" x2="404.5" y2="207"/><line class="cls-6" x1="394.5" y1="224" x2="394.5" y2="209"/><line class="cls-6" x1="383.5" y1="211" x2="383.5" y2="225"/><path class="cls-7" d="M408.36,208.07a6.5,6.5,0,0,0-4.46-.57l-20.36,3.36-20.35-3.36a6.51,6.51,0,0,0-7.94,6.88c0,5.89,12.66,10.66,28.29,10.66s28.3-4.77,28.3-10.66A6.5,6.5,0,0,0,408.36,208.07Z"/><path class="cls-5" d="M368.68,200.85l-6.74-2.3,4.26-5.69A7.12,7.12,0,0,1,368.68,200.85Z"/><path class="cls-8" d="M367.64,202.82a7.12,7.12,0,0,1-11.4-8.53,7,7,0,0,1,1.6-1.56,7.1,7.1,0,0,1,8.36.13l-4.26,5.69,6.74,2.3A7.32,7.32,0,0,1,367.64,202.82Z"/><line class="cls-9" x1="358.15" y1="192.62" x2="356.9" y2="190.25"/><line class="cls-9" x1="361.19" y1="191.96" x2="360.91" y2="189.3"/><line class="cls-9" x1="363.95" y1="191.9" x2="364.97" y2="189.43"/><path class="cls-5" d="M411.63,200.85l-6.73-2.3,4.26-5.69A7.11,7.11,0,0,1,411.63,200.85Z"/><path class="cls-8" d="M410.59,202.82a7.12,7.12,0,0,1-11.39-8.53,7,7,0,0,1,1.6-1.56,7.1,7.1,0,0,1,8.36.13l-4.26,5.69,6.73,2.3A7,7,0,0,1,410.59,202.82Z"/><line class="cls-9" x1="401.11" y1="192.62" x2="399.86" y2="190.25"/><line class="cls-9" x1="404.15" y1="191.96" x2="403.87" y2="189.3"/><line class="cls-9" x1="406.91" y1="191.9" x2="407.92" y2="189.43"/><circle class="cls-2" cx="93" cy="209" r="76"/><ellipse class="cls-3" cx="140" cy="208" rx="16" ry="18"/><ellipse class="cls-4" cx="137" cy="209.5" rx="11" ry="12.5"/><ellipse class="cls-3" cx="46" cy="208" rx="16" ry="18"/><ellipse class="cls-4" cx="49" cy="209.5" rx="11" ry="12.5"/><ellipse class="cls-3" cx="93" cy="205" rx="47" ry="34"/><path class="cls-4" d="M129.36,208.41c-.3,8.94-6.57,14.74-9.12,17.1-9.47,8.77-21.56,8.84-27.16,8.87-5.84,0-19.06.12-28.48-9.48-2-2.07-7.72-7.86-7.8-16.49-.08-8.82,5.71-17.8,13.43-20.26a21.38,21.38,0,0,1,10.3-.21c7,1.27,7.8,4.45,12.66,4.29s5.3-3.22,11.81-4.72c1.56-.36,6.24-1.44,10.82,0C123.75,190,129.66,199.36,129.36,208.41Z"/><path class="cls-6" d="M117.8,213.63a6.51,6.51,0,0,0-4.44-.57L93.08,216.4,72.8,213.06a6.48,6.48,0,0,0-7.9,6.85c0,5.87,12.6,10.62,28.18,10.62s28.18-4.75,28.18-10.62A6.48,6.48,0,0,0,117.8,213.63Z"/><line class="cls-6" x1="71.5" y1="227" x2="71.5" y2="213"/><line class="cls-6" x1="114.5" y1="227" x2="114.5" y2="213"/><line class="cls-6" x1="82.5" y1="230" x2="82.5" y2="215"/><line class="cls-6" x1="103.5" y1="230" x2="103.5" y2="215"/><line class="cls-6" x1="93.5" y1="216" x2="93.5" y2="231"/><path class="cls-5" d="M121.06,206.43l-6.71-2.28,4.25-5.68A7.09,7.09,0,0,1,121.06,206.43Z"/><path class="cls-8" d="M120,208.4a7.09,7.09,0,0,1-11.34-8.5,6.87,6.87,0,0,1,1.59-1.55,7.1,7.1,0,0,1,8.33.12l-4.25,5.68,6.71,2.28A7,7,0,0,1,120,208.4Z"/><path class="cls-5" d="M78.27,206.43l-6.71-2.28,4.25-5.68A7.09,7.09,0,0,1,78.27,206.43Z"/><path class="cls-8" d="M77.23,208.4a7.09,7.09,0,0,1-11.34-8.5,6.87,6.87,0,0,1,1.59-1.55,7.1,7.1,0,0,1,8.33.12l-4.25,5.68,6.71,2.28A7,7,0,0,1,77.23,208.4Z"/><circle class="cls-10" cx="93" cy="206" r="8"/><path class="cls-11" d="M93.52,203.43a4,4,0,0,1,1,.29l-.6-.26a4.77,4.77,0,0,1,.92.55l-.51-.39a4.69,4.69,0,0,1,.89.89l-.39-.51a5.6,5.6,0,0,1,.66,1.17l-.25-.6a6.7,6.7,0,0,1,.44,1.65l-.09-.66A8.34,8.34,0,0,1,95.7,207a2.51,2.51,0,0,0,2.5,2.5,2.55,2.55,0,0,0,2.5-2.5,9.12,9.12,0,0,0-1.37-5.27,6.84,6.84,0,0,0-4.48-3.09,1.85,1.85,0,0,0-1,0,1.79,1.79,0,0,0-.93.29,2.54,2.54,0,0,0-1.15,1.5,2.48,2.48,0,0,0,.25,1.92,2.41,2.41,0,0,0,1.49,1.15Z"/><circle class="cls-2" cx="241" cy="291" r="76"/><ellipse class="cls-3" cx="288.5" cy="290" rx="16.5" ry="18"/><ellipse class="cls-4" cx="285.5" cy="290.5" rx="11.5" ry="12.5"/><ellipse class="cls-3" cx="192.5" cy="290" rx="16.5" ry="18"/><ellipse class="cls-4" cx="195.5" cy="290.5" rx="11.5" ry="12.5"/><ellipse class="cls-3" cx="240.5" cy="286.5" rx="47.5" ry="34.5"/><path class="cls-4" d="M277.46,289.67c-.3,9.07-6.66,14.95-9.24,17.34-9.62,8.9-21.88,9-27.56,9-5.93,0-19.34.12-28.9-9.62-2.06-2.1-7.83-8-7.91-16.73-.08-8.95,5.79-18.06,13.62-20.55a21.64,21.64,0,0,1,10.45-.22c7.06,1.29,7.92,4.52,12.85,4.36s5.38-3.27,12-4.8c1.59-.36,6.33-1.45,11,0C271.78,271,277.77,280.48,277.46,289.67Z"/><path class="cls-6" d="M265.74,295a6.54,6.54,0,0,0-4.51-.58l-20.57,3.39-20.58-3.39a6.57,6.57,0,0,0-8,6.95c0,6,12.79,10.78,28.59,10.78s28.59-4.83,28.59-10.78A6.57,6.57,0,0,0,265.74,295Z"/><line class="cls-6" x1="218.5" y1="308" x2="218.5" y2="294"/><line class="cls-6" x1="262.5" y1="308" x2="262.5" y2="294"/><line class="cls-6" x1="229.5" y1="311" x2="229.5" y2="296"/><line class="cls-6" x1="251.5" y1="311" x2="251.5" y2="296"/><line class="cls-6" x1="240.5" y1="298" x2="240.5" y2="312"/><path class="cls-2" d="M242.13,295a2.5,2.5,0,0,1-3.32,0l-2.45-2.23-2.46-2.23c-.74-.67.19-1.51,1.66-1.51h9.82c1.47,0,2.4.84,1.66,1.51l-2.45,2.23Z"/><path class="cls-5" d="M266.77,287.38l-4.66-1.59,2.95-3.94A4.92,4.92,0,0,1,266.77,287.38Z"/><path class="cls-8" d="M266.05,288.74a4.94,4.94,0,0,1-6.9,1,5,5,0,0,1-1.75-2.49,4.92,4.92,0,0,1,7.66-5.39l-2.95,3.94,4.66,1.59A4.69,4.69,0,0,1,266.05,288.74Z"/><path class="cls-5" d="M223.49,287.38l-4.67-1.59,3-3.94A4.92,4.92,0,0,1,223.49,287.38Z"/><path class="cls-8" d="M222.77,288.74a5,5,0,0,1-4,2,4.92,4.92,0,0,1-3.87-7.87,4.73,4.73,0,0,1,1.11-1.08,4.94,4.94,0,0,1,5.79.09l-3,3.94,4.67,1.59A5.23,5.23,0,0,1,222.77,288.74Z"/><rect class="cls-12" x="209.5" y="280.5" width="19" height="11" rx="4.96"/><line class="cls-12" x1="228" y1="281.5" x2="253" y2="281.5"/><line class="cls-12" x1="211.03" y1="280.5" x2="194.22" y2="278.38"/><rect class="cls-12" x="252.5" y="280.5" width="19" height="11" rx="4.96"/><line class="cls-12" x1="270.17" y1="280.5" x2="286.99" y2="278.38"/><circle class="cls-2" cx="92" cy="391" r="76"/><ellipse class="cls-3" cx="140" cy="390" rx="16" ry="18"/><ellipse class="cls-4" cx="136.5" cy="391.5" rx="11.5" ry="12.5"/><ellipse class="cls-3" cx="45" cy="390" rx="16" ry="18"/><ellipse class="cls-4" cx="47.5" cy="391.5" rx="11.5" ry="12.5"/><ellipse class="cls-3" cx="92.5" cy="387.5" rx="47.5" ry="34.5"/><path class="cls-4" d="M128.91,390.36c-.31,9-6.62,14.86-9.19,17.24-9.56,8.84-21.74,8.91-27.39,8.94-5.89,0-19.21.12-28.71-9.56-2-2.08-7.78-7.92-7.86-16.62-.08-8.89,5.76-17.94,13.53-20.42a21.49,21.49,0,0,1,10.39-.21c7,1.28,7.87,4.49,12.77,4.32s5.34-3.25,11.9-4.76c1.58-.36,6.29-1.44,10.91,0C123.25,371.77,129.21,381.23,128.91,390.36Z"/><path class="cls-6" d="M117.26,395.63a6.53,6.53,0,0,0-4.49-.58l-20.44,3.37-20.44-3.37a6.54,6.54,0,0,0-8,6.91c0,5.91,12.71,10.71,28.41,10.71s28.41-4.8,28.41-10.71A6.5,6.5,0,0,0,117.26,395.63Z"/><line class="cls-6" x1="70.5" y1="409" x2="70.5" y2="395"/><line class="cls-6" x1="113.5" y1="409" x2="113.5" y2="395"/><line class="cls-6" x1="81.5" y1="412" x2="81.5" y2="397"/><line class="cls-6" x1="103.5" y1="412" x2="103.5" y2="397"/><line class="cls-6" x1="92.5" y1="398" x2="92.5" y2="413"/><path class="cls-2" d="M93.8,394.94a2.52,2.52,0,0,1-3.3,0l-2.44-2.22-2.44-2.22c-.73-.67.19-1.5,1.65-1.5H97c1.47,0,2.39.83,1.65,1.5l-2.43,2.22Z"/><path class="cls-9" d="M107,385.36a14.11,14.11,0,0,0,13.61,0"/><path class="cls-9" d="M63.9,385.36a14.11,14.11,0,0,0,13.61,0"/><path class="cls-13" d="M106.5,346.5h4.11l-4.31,4h4.2"/><path class="cls-13" d="M114.5,342.5h6.92l-6.47,6h6.55"/><path class="cls-14" d="M127,347h2.78l-3.23,3H130"/><path class="cls-15" d="M133.5,350.5h2.58l-2.16,2h2.58"/><circle class="cls-2" cx="390" cy="390" r="76"/><ellipse class="cls-3" cx="437" cy="389" rx="16" ry="18"/><ellipse class="cls-4" cx="435" cy="390" rx="11" ry="12"/><ellipse class="cls-3" cx="344" cy="389" rx="16" ry="18"/><ellipse class="cls-4" cx="346" cy="390" rx="11" ry="12"/><ellipse class="cls-3" cx="391" cy="386" rx="47" ry="34"/><path class="cls-4" d="M426.6,388.92c-.3,8.9-6.53,14.67-9.07,17-9.43,8.72-21.45,8.79-27,8.83-5.81,0-19,.11-28.34-9.44-2-2.06-7.67-7.82-7.75-16.41-.09-8.77,5.68-17.7,13.35-20.15a21.21,21.21,0,0,1,10.26-.21c6.92,1.26,7.76,4.43,12.6,4.27s5.27-3.21,11.74-4.7c1.56-.36,6.21-1.43,10.77,0C421,370.57,426.9,379.92,426.6,388.92Z"/><path class="cls-6" d="M372.14,409.7a4.92,4.92,0,0,0,3.37.43l15.36-2.53,15.36,2.53a4.9,4.9,0,0,0,6-5.19c0-4.45-9.55-8.05-21.35-8.05s-21.35,3.6-21.35,8.05A4.91,4.91,0,0,0,372.14,409.7Z"/><line class="cls-6" x1="407.5" y1="400" x2="407.5" y2="410"/><line class="cls-6" x1="374.5" y1="400" x2="374.5" y2="410"/><line class="cls-6" x1="399.5" y1="397" x2="399.5" y2="409"/><line class="cls-6" x1="382.5" y1="397" x2="382.5" y2="409"/><line class="cls-6" x1="390.5" y1="408" x2="390.5" y2="397"/><path class="cls-2" d="M392,393.86a2.49,2.49,0,0,1-3.26,0l-2.41-2.19-2.4-2.19c-.73-.66.18-1.48,1.63-1.48h9.62c1.45,0,2.36.82,1.63,1.48l-2.4,2.19Z"/><path class="cls-5" d="M418.34,387l-6.67-2.28,4.22-5.64A7.05,7.05,0,0,1,418.34,387Z"/><path class="cls-8" d="M417.31,388.91a7.05,7.05,0,1,1-1.42-9.87l-4.22,5.64,6.67,2.28A6.91,6.91,0,0,1,417.31,388.91Z"/><path class="cls-5" d="M375.77,387l-6.68-2.28,4.23-5.64A7.07,7.07,0,0,1,375.77,387Z"/><path class="cls-8" d="M374.74,388.91a7.05,7.05,0,1,1-1.42-9.87l-4.23,5.64,6.68,2.28A7.46,7.46,0,0,1,374.74,388.91Z"/></g></g></svg>